<svg width="18" height="18" viewBox="0 0 18 18" fill="none" xmlns="http://www.w3.org/2000/svg">
<g clip-path="url(#clip0_144_65)">
<path d="M2.25 14.625L5.92734 6.35274C6.46523 5.14336 7.34414 4.12032 8.45859 3.41016L13.623 0.105471C13.7285 0.0386743 13.8516 0.00351807 13.9746 0.00351807C14.3332 2.44542e-06 14.625 0.291799 14.625 0.653909V0.710159C14.625 0.801565 14.6074 0.889456 14.5758 0.973831L12.4734 6.21914C12.4066 6.38438 12.375 6.56016 12.375 6.73594C12.375 6.9293 12.4172 7.12266 12.4945 7.30196L15.75 14.625H8.46914L8.88398 13.3805L10.3043 12.9059C10.5328 12.8285 10.6875 12.6141 10.6875 12.3715C10.6875 12.1289 10.5328 11.9145 10.3043 11.8371L8.88398 11.3625L8.40938 9.94219C8.33203 9.71719 8.11758 9.5625 7.875 9.5625C7.63242 9.5625 7.41797 9.71719 7.34063 9.94571L6.86602 11.366L5.4457 11.8406C5.21719 11.918 5.0625 12.1324 5.0625 12.375C5.0625 12.6176 5.21719 12.832 5.4457 12.9094L6.86602 13.384L7.28086 14.625H2.25ZM9.82969 4.97461C9.79102 4.8586 9.68555 4.78125 9.5625 4.78125C9.43945 4.78125 9.33398 4.8586 9.29531 4.97461L9.05977 5.68477L8.34961 5.92031C8.23359 5.95899 8.15625 6.06446 8.15625 6.1875C8.15625 6.31055 8.23359 6.41602 8.34961 6.45469L9.05977 6.69024L9.29531 7.40039C9.33398 7.51641 9.43945 7.59375 9.5625 7.59375C9.68555 7.59375 9.79102 7.51641 9.82969 7.40039L10.0652 6.69024L10.7754 6.45469C10.8914 6.41602 10.9688 6.31055 10.9688 6.1875C10.9688 6.06446 10.8914 5.95899 10.7754 5.92031L10.0652 5.68477L9.82969 4.97461ZM1.125 15.75H16.875C17.4973 15.75 18 16.2527 18 16.875C18 17.4973 17.4973 18 16.875 18H1.125C0.502734 18 0 17.4973 0 16.875C0 16.2527 0.502734 15.75 1.125 15.75Z" fill="#2F7DF5"/>
</g>
<defs>
<clipPath id="clip0_144_65">
<rect width="18" height="18" fill="white"/>
</clipPath>
</defs>
</svg>
