<svg width="170" height="40" viewBox="0 0 170 40" fill="none" xmlns="http://www.w3.org/2000/svg">
<path d="M35.784 31V10.008H40.968C43.08 10.008 44.8507 10.4133 46.28 11.224C47.7307 12.0133 48.8293 13.1867 49.576 14.744C50.3227 16.3013 50.696 18.1893 50.696 20.408C50.696 22.648 50.3227 24.5573 49.576 26.136C48.8507 27.7147 47.7733 28.92 46.344 29.752C44.9147 30.584 43.1653 31 41.096 31H35.784ZM38.44 28.824H40.776C42.376 28.824 43.6987 28.4933 44.744 27.832C45.8107 27.1493 46.6107 26.1893 47.144 24.952C47.6773 23.6933 47.944 22.1787 47.944 20.408C47.944 18.6587 47.6773 17.1653 47.144 15.928C46.6107 14.6907 45.8107 13.7627 44.744 13.144C43.6987 12.504 42.376 12.184 40.776 12.184H38.44V28.824ZM55.8355 31V10.008H68.8275V12.248H58.5235V18.84H67.2275V21.112H58.5235V28.728H69.1475V31H55.8355ZM79.439 31L72.751 10.008H75.567L78.959 21.336C79.343 22.5733 79.6737 23.736 79.951 24.824C80.2497 25.8907 80.591 27.0427 80.975 28.28H81.103C81.5083 27.0427 81.8497 25.8907 82.127 24.824C82.4257 23.736 82.7563 22.5733 83.119 21.336L86.479 10.008H89.199L82.543 31H79.439ZM92.4825 35.48V33.208H107.843V35.48H92.4825ZM112.25 28.5V26H109.75V11H114.75V21H117.25V11H119.75V21H122.25V11H127.25V26H124.75V28.5H122.25V26H119.75V23.5H117.25V26H114.75V28.5H112.25ZM132.25 28.5V26H137.25V13.5H132.25V11H147.25V13.5H142.25V26H147.25V28.5H132.25ZM149.75 28.5V23.5H152.25V21H154.75V18.5H157.25V16H159.75V13.5H149.75V11H167.25V16H164.75V18.5H162.25V21H159.75V23.5H157.25V26H167.25V28.5H149.75Z" fill="#2F7DF5"/>
<g clip-path="url(#clip0_1_2)">
<path d="M3.5 28.75L9.22031 15.882C10.057 14.0008 11.4242 12.4094 13.1578 11.3047L21.1914 6.16406C21.3555 6.06016 21.5469 6.00547 21.7383 6.00547C22.2961 6 22.75 6.45391 22.75 7.01719V7.10469C22.75 7.24687 22.7227 7.38359 22.6734 7.51484L19.4031 15.6742C19.2992 15.9312 19.25 16.2047 19.25 16.4781C19.25 16.7789 19.3156 17.0797 19.4359 17.3586L24.5 28.75H13.1742L13.8195 26.8141L16.0289 26.0758C16.3844 25.9555 16.625 25.6219 16.625 25.2445C16.625 24.8672 16.3844 24.5336 16.0289 24.4133L13.8195 23.675L13.0812 21.4656C12.9609 21.1156 12.6273 20.875 12.25 20.875C11.8727 20.875 11.5391 21.1156 11.4188 21.4711L10.6805 23.6805L8.47109 24.4188C8.11562 24.5391 7.875 24.8727 7.875 25.25C7.875 25.6273 8.11562 25.9609 8.47109 26.0813L10.6805 26.8195L11.3258 28.75H3.5ZM15.2906 13.7383C15.2305 13.5578 15.0664 13.4375 14.875 13.4375C14.6836 13.4375 14.5195 13.5578 14.4594 13.7383L14.093 14.843L12.9883 15.2094C12.8078 15.2695 12.6875 15.4336 12.6875 15.625C12.6875 15.8164 12.8078 15.9805 12.9883 16.0406L14.093 16.407L14.4594 17.5117C14.5195 17.6922 14.6836 17.8125 14.875 17.8125C15.0664 17.8125 15.2305 17.6922 15.2906 17.5117L15.657 16.407L16.7617 16.0406C16.9422 15.9805 17.0625 15.8164 17.0625 15.625C17.0625 15.4336 16.9422 15.2695 16.7617 15.2094L15.657 14.843L15.2906 13.7383ZM1.75 30.5H26.25C27.218 30.5 28 31.282 28 32.25C28 33.218 27.218 34 26.25 34H1.75C0.782031 34 0 33.218 0 32.25C0 31.282 0.782031 30.5 1.75 30.5Z" fill="#2F7DF5"/>
</g>
<defs>
<clipPath id="clip0_1_2">
<rect width="28" height="28" fill="white" transform="translate(0 6)"/>
</clipPath>
</defs>
</svg>
