<svg width="901" height="776" viewBox="0 0 901 776" fill="none" xmlns="http://www.w3.org/2000/svg">
<g id="nt-sucking-into-the-work 1" clip-path="url(#clip0_1_2)">
<path id="Vector" d="M700.994 4.01023L625.47 300.064C625.335 300.596 625.654 301.138 626.185 301.278L635.809 303.811C636.345 303.952 636.894 303.63 637.032 303.093L713.176 7.58037C713.31 7.06034 713.01 6.52733 712.495 6.37302L702.251 3.29959C701.706 3.1362 701.135 3.45924 700.994 4.01023Z" stroke="black" stroke-width="5" stroke-linecap="round"/>
<path id="Vector_2" d="M312.48 407.332C310.073 223.223 356.455 162.879 382.48 154.498C384.024 154.001 385.667 154.471 386.906 155.52C400.676 167.177 464.146 217.508 460.392 278C460.392 356.46 402.01 439.09 384.98 470.717C367.951 502.344 314.63 499.303 290.099 493.829C217.519 469.298 77.4671 412.694 97.9031 382.526C117.623 353.416 240.491 388.792 305.731 412.256C309.046 413.448 312.527 410.855 312.48 407.332Z" fill="black"/>
<path id="Vector_3" d="M471.392 272.5C491.392 279 510.392 259 518.392 249" stroke="black" stroke-width="5" stroke-linecap="round"/>
<path id="Vector_4" d="M101.559 356.691C92.6382 348.176 70.1748 335.16 51.6851 351.217C33.1953 367.274 14.7867 391.156 7.8936 401.09C3.02788 408.997 -2.44605 424.202 14.584 421.77C35.8715 418.729 49.8606 391.967 68.107 394.4" stroke="black" stroke-width="5" stroke-linecap="round"/>
<path id="Vector_5" d="M287.111 376.427C292.091 360.854 304.836 334.511 313.986 316.71C315.883 313.02 321.117 313.193 322.656 317.046C339.112 358.241 352.5 425.552 296.181 425.101C220.154 424.493 97.9027 342.992 136.22 328.395C165.204 317.353 239.608 355.828 278.82 379.762C281.881 381.63 286.019 379.843 287.111 376.427Z" fill="black"/>
<path id="Vector_6" d="M138.045 321.349C127.948 311.892 102.681 293.969 82.3919 297.942C57.031 302.907 7.01362 338.373 23.2164 345.467C39.4192 352.56 63.2345 335.085 93.6453 335.085" stroke="black" stroke-width="5" stroke-linecap="round"/>
<path id="Vector_7" d="M338.756 210.357C292.295 192.191 186.905 204.159 189.171 337.518" stroke="black" stroke-width="5" stroke-linecap="round"/>
<path id="Vector_8" d="M429.988 337.518V443.576C429.988 460.073 425.731 488.355 391.062 488.355" stroke="black" stroke-width="5" stroke-linecap="round"/>
<path id="Vector_9" d="M323.429 499.859L429.358 488.423C429.776 488.378 430.216 488.387 430.631 488.454C463.314 493.746 453.556 533.971 429.987 533.971H184.8C184.05 533.971 183.286 533.796 182.618 533.454C152.429 518.01 169.91 484.747 190.959 488.355L322.456 499.869C322.78 499.897 323.105 499.894 323.429 499.859Z" stroke="black" stroke-width="5" stroke-linecap="round"/>
<path id="Vector_10" d="M199.021 534.58L188.274 695.898C188.082 698.784 190.371 701.231 193.263 701.231H198.516C200.947 701.231 203.026 699.482 203.442 697.088L231.71 534.58" stroke="black" stroke-width="5" stroke-linecap="round"/>
<path id="Vector_11" d="M418.886 534.58L429.633 695.898C429.825 698.784 427.536 701.231 424.644 701.231H419.391C416.96 701.231 414.881 699.482 414.465 697.088L386.197 534.58" stroke="black" stroke-width="5" stroke-linecap="round"/>
<path id="Vector_12" d="M191.568 455.512C190.149 465.851 192.906 486.288 215.289 485.314" stroke="black" stroke-width="5" stroke-linecap="round"/>
<path id="Vector_13" d="M393.496 150.796C407.485 139.24 446.532 120.994 510.273 138.024" stroke="black" stroke-width="5" stroke-linecap="round"/>
<path id="Vector_14" d="M493.851 134.374C516.152 108.424 584.718 61.6318 680.573 82.0679" stroke="black" stroke-width="5" stroke-linecap="round"/>
<path id="Vector_15" d="M623.401 128.9C571.5 147.958 485.27 204.107 545.549 283.995C591.442 344.817 606.371 294.335 587.516 245.678C584.475 235.338 580.218 218.43 602.113 209.185" stroke="black" stroke-width="5" stroke-linecap="round"/>
<path id="Vector_16" d="M581.142 321.705C577.493 330.22 580.776 344.452 586.615 347.858" stroke="black" stroke-width="5" stroke-linecap="round"/>
<path id="Vector_17" d="M603.938 327.178C609.26 324.222 620.331 320.115 636.033 323.803C636.922 324.012 637.724 324.478 638.355 325.138C646.615 333.775 660.174 350.058 655.028 353.332C649.675 356.738 639.822 344.209 637.389 339.952" stroke="black" stroke-width="5" stroke-linecap="round"/>
<path id="Vector_18" d="M644.688 349.074C648.337 354.548 648.337 360.022 643.472 361.847C638.606 363.671 632.524 352.115 630.699 347.25" stroke="black" stroke-width="5" stroke-linecap="round"/>
<path id="Vector_19" d="M638.606 360.631C637.795 363.088 633.025 367.268 627.658 361.847C624.009 358.162 622.792 355.765 620.968 352.115" stroke="black" stroke-width="5" stroke-linecap="round"/>
<path id="Vector_20" d="M602.113 349.074H454.269C451.58 349.074 449.379 351.226 449.969 353.85C451.408 360.243 456.113 369.084 467.844 371.488C468.147 371.55 468.461 371.578 468.771 371.578H496.758C499.519 371.578 501.758 373.817 501.758 376.578V746.104C501.758 748.866 503.996 751.104 506.758 751.104H736.529" stroke="black" stroke-width="5" stroke-linecap="round"/>
<path id="Vector_21" d="M499.325 369.145V389.825L821.679 379.189V369.145H499.325Z" fill="black"/>
<path id="Vector_22" d="M818.638 478.624V375.806C818.638 373.11 820.776 370.899 823.471 370.809L836.884 370.362C847.506 370.362 853.583 365.724 855.277 354.829C855.712 352.036 853.396 349.682 850.569 349.682H656.853" stroke="black" stroke-width="5" stroke-linecap="round"/>
<path id="Vector_23" d="M626.441 361.847C624.211 365.699 616.588 368.659 603.938 349.682" stroke="black" stroke-width="5" stroke-linecap="round"/>
<path id="Vector_24" d="M636.781 303.458C664.151 273.656 717.187 173.057 712.808 6.64929" stroke="black" stroke-width="5" stroke-linecap="round"/>
<path id="Vector_25" d="M717.066 180.531C725.762 180.531 732.812 173.482 732.812 164.785C732.812 156.089 725.762 149.039 717.066 149.039C708.369 149.039 701.32 156.089 701.32 164.785C701.32 173.482 708.369 180.531 717.066 180.531Z" stroke="black" stroke-width="5"/>
<path id="Vector_26" d="M712.808 181.207L736.528 299.809C738.556 310.149 735.677 331.558 707.942 334.477H657.461C655.433 334.274 651.378 334.842 651.378 338.735" stroke="black" stroke-width="5" stroke-linecap="round"/>
<path id="Vector_27" d="M720.107 347.858C733.488 344.614 758.668 329.611 752.342 295.551C746.017 261.491 732.677 202.697 726.797 177.558" stroke="black" stroke-width="5" stroke-linecap="round"/>
<path id="Vector_28" d="M743.042 772.222L720.494 673.13C720.323 672.377 721.048 671.725 721.786 671.954C786.351 691.933 836.584 681.07 855.679 672.333C856.444 671.983 857.299 672.655 857.122 673.477L835.838 772.211C835.739 772.671 835.331 773 834.86 773H744.017C743.55 773 743.146 772.677 743.042 772.222Z" stroke="black" stroke-width="5" stroke-linecap="round"/>
<g id="leaves">
<path id="Vector_29" d="M838.894 449.24C776.201 524.689 770.806 632.619 776.482 680.24C776.592 681.16 777.312 681.838 778.234 681.925C789.878 683.031 811.984 683.672 819.931 678.489C820.287 678.257 820.534 677.882 820.657 677.476C871.047 511.812 845.502 481.579 842.613 450.498C842.442 448.658 840.075 447.819 838.894 449.24Z" fill="black"/>
<path id="Vector_30" d="M900.907 506.489C903.058 562.075 856.657 637.491 828.797 675.608C827.435 677.472 824.562 675.868 825.339 673.694C843.542 622.793 854.244 562.833 855.115 542.278C855.127 542 855.191 541.752 855.316 541.504C863.187 525.797 885.628 511.354 898.117 504.879C899.372 504.229 900.852 505.077 900.907 506.489Z" fill="black"/>
<path id="Vector_31" d="M755.383 429.359C782.631 456.12 793.904 496.465 796.134 513.292C772.292 572.167 770.791 649.735 773.022 681.16C769.616 681.16 764.709 679.943 762.682 679.335C717.431 582.021 738.961 472.136 755.383 429.359Z" fill="black"/>
<path id="Vector_32" d="M719.156 589.927C721.102 642.964 713.619 658.453 722.54 674.469C716.701 674.469 729.698 699.812 724.021 697.581C651.522 622.163 638.263 536.404 640.696 502.953C669.89 513.657 705.167 565.396 719.156 589.927Z" fill="black" fill-opacity="0.3"/>
<path id="Vector_33" d="M732.271 566.207C734.217 619.243 752.545 664.535 761.465 680.551C755.626 680.551 742.813 676.091 737.137 673.861C664.637 598.442 651.378 512.684 653.811 479.232C683.006 489.937 718.282 541.676 732.271 566.207Z" fill="black"/>
</g>
</g>
<defs>
<clipPath id="clip0_1_2">
<rect width="901" height="776" fill="white"/>
</clipPath>
</defs>
</svg>
